<?xml version="1.0" standalone="no"?>
<!DOCTYPE svg PUBLIC "-//W3C//DTD SVG 20010904//EN"
 "http://www.w3.org/TR/2001/REC-SVG-20010904/DTD/svg10.dtd">
<svg version="1.0" xmlns="http://www.w3.org/2000/svg"
 width="174.000000pt" height="108.000000pt" viewBox="0 0 174.000000 108.000000"
 preserveAspectRatio="xMidYMid meet">
<metadata>
Created by potrace 1.14, written by Peter Selinger 2001-2017
</metadata>
<g transform="translate(0.000000,108.000000) scale(0.100000,-0.100000)"
fill="#000000" stroke="none">
<path d="M774 881 c-67 -41 -100 -112 -91 -198 14 -134 123 -217 217 -165 74
40 119 169 90 256 -34 104 -137 155 -216 107z"/>
<path d="M434 790 c-31 -12 -62 -57 -70 -98 -16 -86 48 -192 116 -192 59 0
120 83 120 164 0 91 -87 158 -166 126z"/>
<path d="M1142 780 c-60 -37 -78 -119 -43 -196 50 -110 152 -110 202 0 22 49
24 95 5 141 -16 39 -68 75 -106 75 -14 0 -40 -9 -58 -20z"/>
<path d="M615 524 c-67 -35 -95 -82 -95 -159 l0 -45 320 0 320 0 0 45 c0 94
-58 163 -145 173 -38 4 -52 0 -87 -24 -56 -39 -118 -40 -176 -1 -47 31 -92 35
-137 11z"/>
<path d="M272 500 c-42 -26 -72 -76 -72 -122 l0 -38 150 0 150 0 0 38 c0 21 9
55 20 77 25 48 25 48 1 35 -29 -15 -62 -12 -104 10 -47 25 -103 25 -145 0z"/>
<path d="M1270 505 c-17 -20 -77 -30 -106 -16 -29 13 -29 14 -4 -34 11 -22 20
-56 20 -77 l0 -38 150 0 150 0 0 39 c0 48 -34 100 -80 123 -43 22 -113 23
-130 3z"/>
</g>
</svg>
